<svg width="20" height="20" viewBox="0 0 20 20" fill="none" xmlns="http://www.w3.org/2000/svg">
<g clip-path="url(#clip0_1457_5324)">
<path d="M-3.63672 -0.227295H23.636V20.2272H-3.63672V-0.227295Z" fill="#012169"/>
<path d="M-0.440696 -0.227295L9.95703 7.48577L20.3121 -0.227295H23.636V2.41475L13.4087 10.0426L23.636 17.6278V20.2272H20.2269L9.99965 12.5994L-0.185014 20.2272H-3.63672V17.6704L6.54794 10.0852L-3.63672 2.49998V-0.227295H-0.440696Z" fill="white"/>
<path d="M14.4315 11.7471L23.636 18.5227V20.2272L12.0877 11.7471H14.4315ZM6.59055 12.5994L6.84624 14.0909L-1.33558 20.2272H-3.63672L6.59055 12.5994ZM23.636 -0.227295V-0.099454L13.0252 7.91191L13.1104 6.03691L21.5053 -0.227295H23.636ZM-3.63672 -0.227295L6.54794 7.2727H3.99112L-3.63672 1.56248V-0.227295Z" fill="#C8102E"/>
<path d="M6.63317 -0.227295V20.2272H13.4513V-0.227295H6.63317ZM-3.63672 6.59089V13.4091H23.636V6.59089H-3.63672Z" fill="white"/>
<path d="M-3.63672 7.99714V12.088H23.636V7.99714H-3.63672ZM7.9968 -0.227295V20.2272H12.0877V-0.227295H7.9968Z" fill="#C8102E"/>
</g>
<defs>
<clipPath id="clip0_1457_5324">
<rect width="27.2727" height="20.4545" fill="white" transform="translate(-3.63672 -0.227295)"/>
</clipPath>
</defs>
</svg>
