<svg width="11" height="16" viewBox="0 0 11 16" fill="none" xmlns="http://www.w3.org/2000/svg">
<path fill-rule="evenodd" clip-rule="evenodd" d="M6.55067 0.615514C6.86699 0.711288 7.08333 1.00283 7.08333 1.33333V5.91667H9.66667C9.94326 5.91667 10.1974 6.0689 10.3279 6.31277C10.4584 6.55664 10.4441 6.85255 10.2907 7.08269L4.95737 15.0827C4.77404 15.3577 4.43232 15.4803 4.116 15.3845C3.79968 15.2887 3.58333 14.9972 3.58333 14.6667V10.0833H1C0.723405 10.0833 0.46926 9.9311 0.338745 9.68723C0.208231 9.44336 0.222535 9.14745 0.375963 8.91731L5.7093 0.917308C5.89262 0.642315 6.23435 0.51974 6.55067 0.615514ZM2.40139 8.58333H4.33333C4.74755 8.58333 5.08333 8.91912 5.08333 9.33333V12.1896L8.26528 7.41667H6.33333C5.91912 7.41667 5.58333 7.08088 5.58333 6.66667V3.81042L2.40139 8.58333Z" fill="#2356AA"/>
</svg>
