<svg width="20" height="20" viewBox="0 0 20 20" fill="none" xmlns="http://www.w3.org/2000/svg">
<path fill-rule="evenodd" clip-rule="evenodd" d="M4.08398 8.45679C4.08398 6.39216 4.83717 4.90112 5.92068 3.92016C7.01696 2.92764 8.49755 2.41664 10.0006 2.41664C11.5037 2.41665 12.9843 2.92765 14.0806 3.92018C15.1641 4.90114 15.9173 6.39218 15.9173 8.45679C15.9173 11.1964 14.2337 13.596 12.5247 15.3116C12.2138 15.6237 12.0344 15.8009 11.8315 15.9451C11.644 16.0783 11.4133 16.1981 11.0075 16.3303C10.8421 16.3842 10.4606 16.431 10.0008 16.4311C9.54106 16.4311 9.15952 16.3842 8.99417 16.3304C8.58836 16.1982 8.35759 16.0783 8.1701 15.9451C7.96723 15.801 7.78782 15.6238 7.47693 15.3117C5.76777 13.5961 4.08398 11.1964 4.08398 8.45679ZM17.4173 8.45679C17.4173 5.99466 16.5038 4.09062 15.0873 2.8082C13.6836 1.53734 11.8309 0.916646 10.0007 0.916641C8.17042 0.916637 6.31767 1.53732 4.91395 2.80818C3.49746 4.0906 2.58398 5.99464 2.58398 8.45679C2.58398 11.7994 4.61527 14.5646 6.41428 16.3704L6.4388 16.395C6.71935 16.6767 6.98424 16.9426 7.30129 17.1679C7.64295 17.4107 8.02001 17.5906 8.52959 17.7566C8.92742 17.8862 9.50325 17.9311 10.0008 17.9311C10.4984 17.931 11.0743 17.8862 11.4721 17.7565C11.9817 17.5905 12.3587 17.4106 12.7004 17.1678C13.0174 16.9425 13.2823 16.6765 13.5628 16.3949L13.5873 16.3702C15.3862 14.5645 17.4173 11.7993 17.4173 8.45679ZM8.25065 8.33333C8.25065 7.36684 9.03415 6.58333 10.0007 6.58333C10.9671 6.58333 11.7507 7.36684 11.7507 8.33333C11.7507 9.29983 10.9671 10.0833 10.0007 10.0833C9.03415 10.0833 8.25065 9.29983 8.25065 8.33333ZM10.0007 5.08333C8.20573 5.08333 6.75065 6.53841 6.75065 8.33333C6.75065 10.1283 8.20573 11.5833 10.0007 11.5833C11.7956 11.5833 13.2507 10.1283 13.2507 8.33333C13.2507 6.53841 11.7956 5.08333 10.0007 5.08333Z" fill="#0C0F12"/>
</svg>
