<svg width="24" height="24" viewBox="0 0 24 24" fill="none" xmlns="http://www.w3.org/2000/svg">
<path fill-rule="evenodd" clip-rule="evenodd" d="M8.75 1C8.75 0.585786 8.41421 0.25 8 0.25C7.58579 0.25 7.25 0.585786 7.25 1V2.27315C7.06292 2.28069 6.88649 2.29068 6.71986 2.30392C6.02597 2.35906 5.43809 2.47407 4.89913 2.73985C3.96133 3.20233 3.20233 3.96133 2.73985 4.89913C2.47407 5.43809 2.35906 6.02597 2.30392 6.71986C2.24999 7.39854 2.24999 8.23977 2.25 9.30128V9.33333V14.6V14.633C2.24999 15.7251 2.24999 16.5906 2.30699 17.2883C2.36527 18.0017 2.48688 18.6053 2.76772 19.1565C3.22312 20.0502 3.94978 20.7769 4.84354 21.2323C5.39472 21.5131 5.99834 21.6347 6.71173 21.693C7.40935 21.75 8.27484 21.75 9.36698 21.75H9.4H14.6H14.633C15.7252 21.75 16.5906 21.75 17.2883 21.693C18.0017 21.6347 18.6053 21.5131 19.1565 21.2323C20.0502 20.7769 20.7769 20.0502 21.2323 19.1565C21.5131 18.6053 21.6347 18.0017 21.693 17.2883C21.75 16.5906 21.75 15.7252 21.75 14.633V14.6V9.4V9.36698C21.75 8.27485 21.75 7.40935 21.693 6.71173C21.6347 5.99834 21.5131 5.39472 21.2323 4.84354C20.7769 3.94978 20.0502 3.22312 19.1565 2.76772C18.6053 2.48688 18.0017 2.36527 17.2883 2.30699C17.119 2.29316 16.9399 2.28269 16.75 2.27475V1C16.75 0.585786 16.4142 0.25 16 0.25C15.5858 0.25 15.25 0.585786 15.25 1V2.25043C15.0528 2.25 14.8473 2.25 14.6331 2.25H14.633L14.6 2.25H9.33333L9.30128 2.25C9.11051 2.25 8.92687 2.25 8.75 2.25031V1ZM15.25 4V3.75049C15.046 3.75002 14.8297 3.75 14.6 3.75H9.33333C9.12812 3.75 8.934 3.75002 8.75 3.75037V4C8.75 4.41421 8.41421 4.75 8 4.75C7.58579 4.75 7.25 4.41421 7.25 4V3.7744C7.10443 3.78083 6.96779 3.78895 6.83868 3.79921C6.23478 3.84719 5.86008 3.93844 5.56256 4.08516C4.92091 4.40159 4.40159 4.92091 4.08516 5.56256C3.93844 5.86008 3.8472 6.23478 3.79921 6.83868C3.75055 7.45098 3.75 8.23265 3.75 9.33333V14.6C3.75 15.7325 3.75058 16.5367 3.80201 17.1661C3.85271 17.7867 3.94909 18.171 4.10423 18.4755C4.41582 19.087 4.913 19.5842 5.52453 19.8958C5.829 20.0509 6.21325 20.1473 6.83388 20.198C7.46326 20.2494 8.26752 20.25 9.4 20.25H14.6C15.7325 20.25 16.5367 20.2494 17.1661 20.198C17.7867 20.1473 18.171 20.0509 18.4755 19.8958C19.087 19.5842 19.5842 19.087 19.8958 18.4755C20.0509 18.171 20.1473 17.7867 20.198 17.1661C20.2494 16.5367 20.25 15.7325 20.25 14.6V9.4C20.25 8.26752 20.2494 7.46326 20.198 6.83388C20.1473 6.21325 20.0509 5.829 19.8958 5.52453C19.5842 4.913 19.087 4.41582 18.4755 4.10423C18.171 3.94909 17.7867 3.85271 17.1661 3.80201C17.0354 3.79133 16.8972 3.78284 16.75 3.7761V4C16.75 4.41421 16.4142 4.75 16 4.75C15.5858 4.75 15.25 4.41421 15.25 4ZM7 7.25C6.58579 7.25 6.25 7.58579 6.25 8C6.25 8.41421 6.58579 8.75 7 8.75H17C17.4142 8.75 17.75 8.41421 17.75 8C17.75 7.58579 17.4142 7.25 17 7.25H7Z" fill="#252E37"/>
</svg>
