<svg width="24" height="25" viewBox="0 0 24 25" fill="none" xmlns="http://www.w3.org/2000/svg">
<path fill-rule="evenodd" clip-rule="evenodd" d="M3.75 12.5C3.75 7.94365 7.44365 4.25 12 4.25C16.5563 4.25 20.25 7.94365 20.25 12.5C20.25 17.0563 16.5563 20.75 12 20.75C7.44365 20.75 3.75 17.0563 3.75 12.5ZM12 2.75C6.61522 2.75 2.25 7.11522 2.25 12.5C2.25 17.8848 6.61522 22.25 12 22.25C17.3848 22.25 21.75 17.8848 21.75 12.5C21.75 7.11522 17.3848 2.75 12 2.75ZM16.5303 10.0303C16.8232 9.73744 16.8232 9.26256 16.5303 8.96967C16.2374 8.67678 15.7626 8.67678 15.4697 8.96967L11 13.4393L9.53033 11.9697C9.23744 11.6768 8.76256 11.6768 8.46967 11.9697C8.17678 12.2626 8.17678 12.7374 8.46967 13.0303L10.4697 15.0303C10.6103 15.171 10.8011 15.25 11 15.25C11.1989 15.25 11.3897 15.171 11.5303 15.0303L16.5303 10.0303Z" fill="#216C5E"/>
</svg>
