<svg width="48" height="48" viewBox="0 0 48 48" fill="none" xmlns="http://www.w3.org/2000/svg">
<rect width="48" height="48" rx="8" fill="#216C5E"/>
<path d="M36.0588 10.5214L12.3617 10.5809C8.95133 10.5895 6.20322 13.379 6.24563 16.7891L6.39427 28.7393C6.43642 32.1279 9.21937 34.8398 12.608 34.7944L24.4489 34.6355C26.7925 34.6041 28.949 35.9113 30.0051 38.0037L31.9714 41.8988C32.4896 42.9254 34.0087 42.7383 34.2624 41.6166L35.4603 36.3183C35.6851 35.3241 36.5256 34.5885 37.5407 34.4972C39.9092 34.2843 41.7448 32.3349 41.8152 29.958L42.2034 16.8346C42.3059 13.3725 39.5224 10.5127 36.0588 10.5214Z" fill="white" stroke="white" stroke-width="2"/>
<path d="M16.3943 29.6616V16.7121H19.5452V21.9096H24.6823V16.7121H27.8269V29.6616H24.6823V24.4578H19.5452V29.6616H16.3943Z" fill="#0C0F12"/>
<path d="M29.4449 29.6616V19.9495H32.5576V29.6616H29.4449ZM31.0044 18.8177C30.5673 18.8177 30.1918 18.6743 29.8777 18.3877C29.5637 18.0968 29.4067 17.747 29.4067 17.3381C29.4067 16.9334 29.5637 16.5878 29.8777 16.3011C30.1918 16.0103 30.5673 15.8648 31.0044 15.8648C31.4458 15.8648 31.8213 16.0103 32.1311 16.3011C32.4452 16.5878 32.6022 16.9334 32.6022 17.3381C32.6022 17.747 32.4452 18.0968 32.1311 18.3877C31.8213 18.6743 31.4458 18.8177 31.0044 18.8177Z" fill="#0C0F12"/>
</svg>
