<svg width="115" height="49" viewBox="0 0 115 49" fill="none" xmlns="http://www.w3.org/2000/svg">
    <path d="M38.4008 7.36957L8.99599 7.44342C4.76423 7.45405 1.35421 10.9154 1.40684 15.1469L1.59129 29.9754C1.64359 34.1802 5.09683 37.5453 9.3016 37.4889L23.9945 37.2918C26.9026 37.2528 29.5785 38.8749 30.889 41.4712L33.3289 46.3045C33.9719 47.5784 35.8569 47.3462 36.1717 45.9544L37.6582 39.3799C37.9371 38.1463 38.98 37.2334 40.2397 37.1202C43.1786 36.856 45.4564 34.4371 45.5436 31.4876L46.0254 15.2034C46.1525 10.9074 42.6987 7.35877 38.4008 7.36957Z" stroke="white" stroke-width="2"/>
    <path d="M13.9999 31.1199V15.0514H17.9098V21.5007H24.2841V15.0514H28.1861V31.1199H24.2841V24.6627H17.9098V31.1199H13.9999Z" fill="white"/>
    <path d="M30.1938 31.1199V19.0685H34.0563V31.1199H30.1938ZM32.129 17.6641C31.5866 17.6641 31.1206 17.4862 30.7309 17.1305C30.3413 16.7696 30.1464 16.3355 30.1464 15.8281C30.1464 15.326 30.3413 14.8971 30.7309 14.5414C31.1206 14.1805 31.5866 14 32.129 14C32.6767 14 33.1427 14.1805 33.5271 14.5414C33.9168 14.8971 34.1116 15.326 34.1116 15.8281C34.1116 16.3355 33.9168 16.7696 33.5271 17.1305C33.1427 17.4862 32.6767 17.6641 32.129 17.6641Z" fill="white"/>
    <path d="M68.877 20.0138H65.3414C65.2768 19.5563 65.145 19.15 64.9459 18.7949C64.7468 18.4343 64.4911 18.1276 64.179 17.8746C63.8669 17.6217 63.5063 17.428 63.0973 17.2934C62.6937 17.1589 62.2551 17.0916 61.7816 17.0916C60.9259 17.0916 60.1806 17.3042 59.5456 17.7293C58.9106 18.1491 58.4182 18.7626 58.0684 19.5698C57.7186 20.3716 57.5437 21.3457 57.5437 22.4919C57.5437 23.6705 57.7186 24.6607 58.0684 25.4625C58.4236 26.2643 58.9186 26.8697 59.5537 27.2787C60.1887 27.6877 60.9232 27.8922 61.7574 27.8922C62.2255 27.8922 62.6588 27.8303 63.057 27.7066C63.4606 27.5828 63.8185 27.4025 64.1306 27.1657C64.4427 26.9236 64.701 26.6303 64.9055 26.2859C65.1154 25.9414 65.2607 25.5486 65.3414 25.1073L68.877 25.1235C68.7855 25.8822 68.5568 26.6141 68.1909 27.3191C67.8303 28.0187 67.3433 28.6456 66.7298 29.1999C66.1217 29.7488 65.3952 30.1847 64.5503 30.5076C63.7108 30.8251 62.761 30.9839 61.7009 30.9839C60.2263 30.9839 58.9079 30.6502 57.7455 29.9829C56.5885 29.3156 55.6736 28.3496 55.0009 27.085C54.3336 25.8204 54 24.2893 54 22.4919C54 20.6891 54.339 19.1554 55.0171 17.8908C55.6952 16.6261 56.6154 15.6629 57.7778 15.001C58.9402 14.3337 60.2479 14 61.7009 14C62.6588 14 63.5467 14.1345 64.3647 14.4036C65.188 14.6727 65.9172 15.0655 66.5522 15.5821C67.1872 16.0934 67.7039 16.7203 68.1021 17.463C68.5057 18.2056 68.764 19.0559 68.877 20.0138Z" fill="white"/>
    <path d="M74.303 14.226V30.7578H70.8642V14.226H74.303Z" fill="white"/>
    <path d="M80.1386 30.9919C79.3475 30.9919 78.6425 30.8547 78.0237 30.5802C77.4048 30.3004 76.9151 29.8887 76.5545 29.3452C76.1994 28.7963 76.0218 28.1129 76.0218 27.2949C76.0218 26.606 76.1482 26.0275 76.4012 25.5594C76.6541 25.0912 76.9985 24.7145 77.4344 24.4292C77.8703 24.144 78.3654 23.9288 78.9197 23.7835C79.4794 23.6382 80.0659 23.5359 80.6794 23.4767C81.4005 23.4014 81.9817 23.3314 82.423 23.2669C82.8643 23.1969 83.1845 23.0947 83.3836 22.9601C83.5827 22.8256 83.6823 22.6265 83.6823 22.3628V22.3143C83.6823 21.8031 83.5208 21.4076 83.1979 21.1277C82.8804 20.8479 82.4284 20.708 81.8418 20.708C81.223 20.708 80.7306 20.8452 80.3646 21.1197C79.9987 21.3887 79.7565 21.7278 79.6381 22.1368L76.4577 21.8784C76.6191 21.125 76.9366 20.4739 77.4102 19.925C77.8838 19.3707 78.4946 18.9456 79.2426 18.6496C79.996 18.3482 80.8678 18.1975 81.858 18.1975C82.5468 18.1975 83.206 18.2783 83.8356 18.4397C84.4707 18.6011 85.033 18.8514 85.5227 19.1904C86.0178 19.5294 86.408 19.9653 86.6932 20.4981C86.9784 21.0255 87.121 21.6578 87.121 22.3951V30.7578H83.8599V29.0385H83.763C83.5639 29.4259 83.2975 29.7676 82.9639 30.0636C82.6302 30.3542 82.2293 30.5829 81.7611 30.7498C81.2929 30.9112 80.7521 30.9919 80.1386 30.9919ZM81.1234 28.6187C81.6293 28.6187 82.0759 28.5192 82.4634 28.32C82.8508 28.1155 83.1549 27.8411 83.3755 27.4967C83.5962 27.1523 83.7065 26.7621 83.7065 26.3262V25.0104C83.5989 25.0804 83.4509 25.145 83.2625 25.2042C83.0796 25.258 82.8724 25.3091 82.641 25.3576C82.4096 25.4006 82.1782 25.441 81.9468 25.4786C81.7154 25.5109 81.5055 25.5405 81.3171 25.5674C80.9135 25.6266 80.561 25.7208 80.2597 25.85C79.9583 25.9791 79.7242 26.154 79.5574 26.3746C79.3906 26.5899 79.3072 26.859 79.3072 27.1819C79.3072 27.65 79.4767 28.0079 79.8157 28.2555C80.1601 28.4976 80.596 28.6187 81.1234 28.6187Z" fill="white"/>
    <path d="M99.6505 21.8946L96.5023 22.0883C96.4485 21.8192 96.3328 21.5771 96.1552 21.3618C95.9776 21.1412 95.7436 20.9663 95.453 20.8371C95.1677 20.7026 94.826 20.6353 94.4278 20.6353C93.895 20.6353 93.4457 20.7483 93.0797 20.9744C92.7138 21.195 92.5308 21.491 92.5308 21.8623C92.5308 22.1583 92.6492 22.4085 92.886 22.613C93.1228 22.8175 93.5291 22.9816 94.1049 23.1054L96.349 23.5575C97.5544 23.805 98.4531 24.2032 99.0451 24.7521C99.637 25.301 99.933 26.0222 99.933 26.9155C99.933 27.7281 99.6935 28.4411 99.2146 29.0546C98.741 29.6681 98.0899 30.147 97.2611 30.4915C96.4378 30.8305 95.4879 31 94.4117 31C92.7703 31 91.4626 30.6583 90.4886 29.9748C89.5199 29.286 88.9522 28.3496 88.7853 27.1657L92.1676 26.9881C92.2698 27.4886 92.5174 27.8707 92.9102 28.1344C93.3031 28.3927 93.8062 28.5218 94.4197 28.5218C95.0224 28.5218 95.5068 28.4061 95.8727 28.1747C96.244 27.938 96.4324 27.6339 96.4378 27.2626C96.4324 26.9505 96.3005 26.6948 96.0422 26.4957C95.7839 26.2912 95.3857 26.1352 94.8475 26.0275L92.7003 25.5997C91.4895 25.3576 90.5881 24.9378 89.9962 24.3405C89.4096 23.7431 89.1163 22.9816 89.1163 22.056C89.1163 21.2596 89.3316 20.5734 89.7621 19.9976C90.198 19.4218 90.8088 18.9778 91.5945 18.6657C92.3855 18.3536 93.3111 18.1975 94.3713 18.1975C95.9373 18.1975 97.1696 18.5285 98.0683 19.1904C98.9724 19.8523 99.4998 20.7537 99.6505 21.8946Z" fill="white"/>
    <path d="M111.96 21.8946L108.812 22.0883C108.758 21.8192 108.642 21.5771 108.465 21.3618C108.287 21.1412 108.053 20.9663 107.762 20.8371C107.477 20.7026 107.136 20.6353 106.737 20.6353C106.205 20.6353 105.755 20.7483 105.389 20.9744C105.023 21.195 104.84 21.491 104.84 21.8623C104.84 22.1583 104.959 22.4085 105.196 22.613C105.432 22.8175 105.839 22.9816 106.414 23.1054L108.658 23.5575C109.864 23.805 110.763 24.2032 111.355 24.7521C111.947 25.301 112.243 26.0222 112.243 26.9155C112.243 27.7281 112.003 28.4411 111.524 29.0546C111.051 29.6681 110.399 30.147 109.571 30.4915C108.747 30.8305 107.797 31 106.721 31C105.08 31 103.772 30.6583 102.798 29.9748C101.829 29.286 101.262 28.3496 101.095 27.1657L104.477 26.9881C104.579 27.4886 104.827 27.8707 105.22 28.1344C105.613 28.3927 106.116 28.5218 106.729 28.5218C107.332 28.5218 107.816 28.4061 108.182 28.1747C108.554 27.938 108.742 27.6339 108.747 27.2626C108.742 26.9505 108.61 26.6948 108.352 26.4957C108.093 26.2912 107.695 26.1352 107.157 26.0275L105.01 25.5997C103.799 25.3576 102.898 24.9378 102.306 24.3405C101.719 23.7431 101.426 22.9816 101.426 22.056C101.426 21.2596 101.641 20.5734 102.072 19.9976C102.507 19.4218 103.118 18.9778 103.904 18.6657C104.695 18.3536 105.621 18.1975 106.681 18.1975C108.247 18.1975 109.479 18.5285 110.378 19.1904C111.282 19.8523 111.809 20.7537 111.96 21.8946Z" fill="white"/>
</svg>
