<svg width="4" height="16" viewBox="0 0 4 16" fill="none" xmlns="http://www.w3.org/2000/svg">
<path fill-rule="evenodd" clip-rule="evenodd" d="M2.00065 3.83333C2.91732 3.83333 3.66732 3.08333 3.66732 2.16667C3.66732 1.25 2.91732 0.5 2.00065 0.5C1.08398 0.5 0.333984 1.25 0.333984 2.16667C0.333984 3.08333 1.08398 3.83333 2.00065 3.83333ZM2.00065 6.33333C1.08398 6.33333 0.333984 7.08333 0.333984 8C0.333984 8.91667 1.08398 9.66667 2.00065 9.66667C2.91732 9.66667 3.66732 8.91667 3.66732 8C3.66732 7.08333 2.91732 6.33333 2.00065 6.33333ZM0.333984 13.8333C0.333984 12.9167 1.08398 12.1667 2.00065 12.1667C2.91732 12.1667 3.66732 12.9167 3.66732 13.8333C3.66732 14.75 2.91732 15.5 2.00065 15.5C1.08398 15.5 0.333984 14.75 0.333984 13.8333Z" fill="#0C0F12"/>
</svg>
