<svg width="20" height="20" viewBox="0 0 20 20" fill="none" xmlns="http://www.w3.org/2000/svg">
<path fill-rule="evenodd" clip-rule="evenodd" d="M7.52654 4.25007C7.84789 3.18906 8.83342 2.41666 9.99935 2.41666C11.1653 2.41666 12.1508 3.18906 12.4722 4.25007L12.1136 4.24999H12.0827H7.91602H7.88513L7.52654 4.25007ZM5.98129 4.26882C6.32591 2.36256 7.99377 0.916656 9.99935 0.916656C12.0049 0.916656 13.6728 2.36256 14.0174 4.26882C14.2254 4.2761 14.4201 4.28619 14.6027 4.30019C15.2722 4.35151 15.8402 4.45852 16.3636 4.70604C17.357 5.1759 18.1568 5.97568 18.6266 6.9691C18.8742 7.49244 18.9812 8.06051 19.0325 8.72999C19.0827 9.38494 19.0827 10.1959 19.0827 11.2191V11.25V11.2809C19.0827 12.3041 19.0827 13.115 19.0325 13.77C18.9812 14.4395 18.8742 15.0075 18.6266 15.5309C18.1568 16.5243 17.357 17.3241 16.3636 17.7939C15.8402 18.0415 15.2722 18.1485 14.6027 18.1998C13.9478 18.25 13.137 18.25 12.1139 18.25H12.1138H12.1138H12.1137H12.1136H12.0827H7.91602H7.88514H7.88498H7.88493H7.88488H7.88483C6.86173 18.25 6.0509 18.25 5.39602 18.1998C4.72654 18.1485 4.15847 18.0415 3.63513 17.7939C2.6417 17.3241 1.84192 16.5243 1.37207 15.5309C1.12455 15.0075 1.01754 14.4395 0.966215 13.77C0.916007 13.115 0.916011 12.3041 0.916016 11.2809L0.916016 11.25L0.916016 11.2191C0.916011 10.1959 0.916007 9.38494 0.966215 8.72999C1.01754 8.06051 1.12455 7.49244 1.37207 6.9691C1.84192 5.97568 2.6417 5.1759 3.63513 4.70604C4.15847 4.45852 4.72654 4.35151 5.39602 4.30019C5.57858 4.28619 5.77327 4.2761 5.98129 4.26882ZM2.41602 11.25C2.41602 12.311 2.41653 13.0644 2.46183 13.6553C2.50652 14.2383 2.59153 14.6009 2.72805 14.8895C3.04953 15.5693 3.59675 16.1165 4.27646 16.438C4.56511 16.5745 4.92774 16.6595 5.51067 16.7042C6.10156 16.7495 6.85503 16.75 7.91602 16.75H12.0827C13.1437 16.75 13.8971 16.7495 14.488 16.7042C15.071 16.6595 15.4336 16.5745 15.7222 16.438C16.402 16.1165 16.9492 15.5693 17.2706 14.8895C17.4072 14.6009 17.4922 14.2383 17.5369 13.6553C17.5822 13.0644 17.5827 12.311 17.5827 11.25C17.5827 10.8234 17.5826 10.4466 17.5796 10.11L17.5283 10.1293C17.0959 10.2915 16.4777 10.5064 15.7262 10.7211C15.2333 10.862 14.6804 11.0035 14.0827 11.13V11.6667C14.0827 12.0809 13.7469 12.4167 13.3327 12.4167C12.9185 12.4167 12.5827 12.0809 12.5827 11.6667V11.3949C11.7622 11.5104 10.8912 11.5833 9.99935 11.5833C9.10747 11.5833 8.23651 11.5104 7.41602 11.3949V11.6667C7.41602 12.0809 7.08023 12.4167 6.66602 12.4167C6.2518 12.4167 5.91602 12.0809 5.91602 11.6667V11.13C5.31833 11.0035 4.76537 10.862 4.27248 10.7211C3.52099 10.5064 2.90276 10.2915 2.47038 10.1293L2.41914 10.11C2.4161 10.4466 2.41602 10.8234 2.41602 11.25ZM14.0827 9.59438V9.16666C14.0827 8.75244 13.7469 8.41666 13.3327 8.41666C12.9185 8.41666 12.5827 8.75244 12.5827 9.16666V9.879C11.7624 10.0035 10.8892 10.0833 9.99935 10.0833C9.10946 10.0833 8.23632 10.0035 7.41602 9.879V9.16666C7.41602 8.75244 7.08023 8.41666 6.66602 8.41666C6.2518 8.41666 5.91602 8.75244 5.91602 9.16666V9.59438C5.47599 9.49462 5.06295 9.38696 4.68456 9.27885C3.97771 9.07689 3.39803 8.87519 2.99707 8.72483C2.79672 8.6497 2.64138 8.58753 2.53752 8.54476L2.49283 8.52625L2.49847 8.4812C2.54761 8.10145 2.62241 7.8338 2.72805 7.61044C3.04953 6.93072 3.59675 6.38351 4.27646 6.06202C4.56511 5.9255 4.92774 5.84049 5.51067 5.7958C6.10156 5.7505 6.85503 5.74999 7.91602 5.74999H12.0827C13.1437 5.74999 13.8971 5.7505 14.488 5.7958C15.071 5.84049 15.4336 5.9255 15.7222 6.06202C16.402 6.38351 16.9492 6.93072 17.2706 7.61044C17.3763 7.83382 17.4511 8.1015 17.5002 8.4813L17.5059 8.52624L17.4612 8.54476C17.3573 8.58753 17.202 8.6497 17.0016 8.72483C16.6007 8.87519 16.021 9.07689 15.3141 9.27885C14.9358 9.38696 14.5227 9.49462 14.0827 9.59438Z" fill="#22282F"/>
</svg>
