<svg width="18" height="18" viewBox="0 0 18 18" fill="none" xmlns="http://www.w3.org/2000/svg">
<path fill-rule="evenodd" clip-rule="evenodd" d="M9 0.75C4.44365 0.75 0.75 4.44365 0.75 9C0.75 13.5563 4.44365 17.25 9 17.25C13.5563 17.25 17.25 13.5563 17.25 9C17.25 4.44365 13.5563 0.75 9 0.75ZM2.25 9C2.25 5.27208 5.27208 2.25 9 2.25C12.7279 2.25 15.75 5.27208 15.75 9C15.75 12.7279 12.7279 15.75 9 15.75C5.27208 15.75 2.25 12.7279 2.25 9ZM9.75 5.66667C9.75 5.25245 9.41421 4.91667 9 4.91667C8.58579 4.91667 8.25 5.25245 8.25 5.66667V9C8.25 9.25076 8.37533 9.48494 8.58397 9.62404L11.084 11.2907C11.4286 11.5205 11.8943 11.4273 12.124 11.0827C12.3538 10.738 12.2607 10.2724 11.916 10.0426L9.75 8.59861V5.66667Z" fill="#22282F"/>
</svg>
